<svg height="480pt" viewBox="0 -16 480 480" width="480pt" xmlns="http://www.w3.org/2000/svg"><path d="m392 216.015625c14.925781.035156 27.882812-10.273437 31.203125-24.824219 3.320313-14.550781-3.882813-29.460937-17.347656-35.902344 4.46875-11.285156 2.085937-24.128906-6.132813-33.058593-8.214844-8.933594-20.820312-12.375-32.433594-8.863281-2.910156-13.5-14.175781-23.59375-27.914062-25.007813 6.746094-10.441406 6.683594-23.882813-.15625-34.261719-6.84375-10.378906-19.171875-15.738281-31.425781-13.65625-7.574219-13.910156-24.304688-20.023437-39.066407-14.28125-5.273437-11.082031-16.453124-18.140625-28.726562-18.140625s-23.453125 7.058594-28.726562 18.140625c-14.761719-5.742187-31.492188.371094-39.066407 14.28125-12.152343-1.730468-24.214843 3.703125-30.972656 13.953125s-6.992187 23.480469-.609375 33.964844c-13.738281 1.414063-25.003906 11.507813-27.914062 25.007813-2.824219-.851563-5.757813-1.308594-8.710938-1.351563-10.523438-.066406-20.398438 5.074219-26.378906 13.738281-5.976563 8.664063-7.277344 19.722656-3.476563 29.535156-13.464843 6.441407-20.667969 21.351563-17.347656 35.902344 3.320313 14.550782 16.277344 24.859375 31.203125 24.824219zm0 0" fill="#ecaf4a"/><g fill="#ccdce5"><path d="m440 248.015625-47.59375 142.769531c-9.796875 29.398438-37.3125 49.230469-68.300781 49.230469h-174.105469c-32 0-60.160156-21.117187-69.121094-51.839844l-40.878906-140.160156zm0 0"/><path d="m296.390625 106.976562 28.066406-83.710937c1.972657-5.882813 6.300781-10.679687 11.949219-13.242187 5.648438-2.566407 12.109375-2.664063 17.832031-.277344 5.726563 2.386718 10.203125 7.046875 12.359375 12.863281 2.152344 5.816406 1.792969 12.265625-.996094 17.808594l-39.671874 78.863281zm0 0"/><path d="m32 216.015625h416c8.835938 0 16 7.164063 16 16 0 8.839844-7.164062 16-16 16h-416c-8.835938 0-16-7.160156-16-16 0-8.835937 7.164062-16 16-16zm0 0"/></g><path d="m47 272.015625h385l8-24h-400zm0 0" fill="#aab9c1"/><path d="m0 432.015625h16v16h-16zm0 0"/><path d="m415.199219 398.417969c-.734375 2.238281-1.597657 4.421875-2.457031 6.566406l14.777343 6.144531c1.039063-2.496094 2-5.054687 2.863281-7.648437l40.296876-120.894531-15.199219-5.058594zm0 0"/><path d="m400 393.320312 45.769531-137.304687h2.230469c13.253906 0 24-10.742187 24-24 0-13.253906-10.746094-24-24-24h-24.207031c6.570312-8.535156 9.375-19.386719 7.757812-30.039063-1.613281-10.648437-7.507812-20.179687-16.320312-26.382812.511719-2.492188.769531-5.03125.769531-7.578125.050781-11.195313-4.613281-21.894531-12.851562-29.476563-8.238282-7.582031-19.289063-11.34375-30.445313-10.363281-3.957031-8.984375-11.070313-16.210937-20-20.300781l20.097656-39.859375c5.117188-10.148437 4.132813-22.308594-2.546875-31.503906-6.683594-9.195313-17.941406-13.886719-29.175781-12.15625s-20.5625 9.59375-24.167969 20.375l-3.804687 11.351562c-.417969 0-.800781-.074219-1.234375-.058593-9.144532-12.1875-24.445313-18.089844-39.40625-15.199219-7.449219-10.515625-19.539063-16.7656252-32.425782-16.7656252-12.886718 0-24.972656 6.2500002-32.421874 16.7656252-14.976563-2.90625-30.292969 2.992187-39.449219 15.191406h-.167969c-22.082031.027344-39.972656 17.921875-40 40-.003906 3.671875.519531 7.328125 1.550781 10.847656-9.984375 3.820313-18.011719 11.503907-22.261719 21.3125-11.15625-.984375-22.207031 2.777344-30.445312 10.359375-8.238281 7.582032-12.902344 18.285156-12.84375 29.480469.011719 2.546875.28125 5.085937.800781 7.578125-8.816406 6.195312-14.714843 15.726562-16.339843 26.378906-1.621094 10.652344 1.175781 21.503906 7.746093 30.042969h-24.207031c-13.253906 0-24 10.746094-24 24 0 13.257813 10.746094 24 24 24h2l39.199219 134.402344c4.890625 16.644531 15.0625 31.246093 28.984375 41.597656h-70.183594v16h448v-16h-107.929688c13.035157-9.75 22.78125-23.25 27.929688-38.695313zm-67.960938-367.511718c1.664063-5.148438 6.085938-8.921875 11.429688-9.761719s10.707031 1.398437 13.871094 5.789063c3.164062 4.386718 3.589844 10.183593 1.101562 14.988281l-36.328125 72.207031-15.792969-6.574219zm-268.039062 158.207031c.007812-9.207031 5.328125-17.585937 13.65625-21.519531 3.753906-1.804688 5.496094-6.191406 4-10.078125-1.074219-2.671875-1.636719-5.523438-1.65625-8.402344 0-13.253906 10.746094-24 24-24 2.210938.042969 4.402344.394531 6.511719 1.050781 2.136719.609375 4.429687.304688 6.332031-.839844 1.902344-1.148437 3.242188-3.035156 3.699219-5.210937 2.191406-10.128906 10.660156-17.691406 20.96875-18.726563 2.710937-.296874 5.082031-1.953124 6.292969-4.394531 1.214843-2.441406 1.101562-5.332031-.300782-7.667969-2.269531-3.671874-3.480468-7.894531-3.503906-12.210937 0-13.253906 10.746094-24 24-24 .707031.023437 1.414062.089844 2.113281.203125l1.238281.140625c3.199219.359375 6.300782-1.234375 7.871094-4.046875 5.667969-10.375 18.144532-14.949219 29.175782-10.695312 3.890624 1.496093 8.277343-.246094 10.082031-4 3.921875-8.335938 12.308593-13.65625 21.519531-13.65625s17.597656 5.320312 21.519531 13.65625c1.804688 3.753906 6.191407 5.496093 10.082031 4 11.035157-4.285157 23.539063.296874 29.199219 10.695312 1.414063 2.449219 4.011719 3.96875 6.839844 4l-16.082031 47.960938-14.214844-5.929688-6.144531 14.785156 73.839843 30.769532 6.160157-14.769532-14.253907-5.910156 8.542969-16.992188c7.113281 2.992188 12.320313 9.257813 13.960938 16.796876.449219 2.179687 1.789062 4.074218 3.695312 5.222656 1.90625 1.152344 4.203125 1.457031 6.34375.84375 2.109375-.660156 4.300781-1.023438 6.511719-1.074219 13.253906 0 24 10.746094 24 24 0 2.878906-.542969 5.726563-1.601562 8.402344-1.492188 3.886719.246093 8.273437 4 10.078125 10.121093 4.8125 15.539062 16.007812 13.042968 26.929687-2.492187 10.921875-12.238281 18.648438-23.441406 18.589844h-304c-13.253906 0-24-10.742187-24-24zm-40 48c0-4.417969 3.582031-8 8-8h416c4.417969 0 8 3.582031 8 8s-3.582031 8-8 8h-416c-4.417969 0-8-3.582031-8-8zm126 200c-28.40625-.109375-53.378906-18.839844-61.441406-46.078125l-37.894532-129.921875h378.230469l-44.09375 132.242187c-8.6875 26.140626-33.148437 43.777344-60.695312 43.757813zm0 0"/><path d="m112 144.015625v16c13.253906 0 24 10.746094 24 24h16c-.027344-22.078125-17.917969-39.972656-40-40zm0 0"/><path d="m199.527344 75.929688c2.605468 13-5.828125 25.648437-18.832032 28.246093l3.144532 15.679688c21.640625-4.339844 35.675781-25.390625 31.359375-47.039063zm0 0"/><path d="m344 152.015625h-16c.027344 22.082031 17.917969 39.976563 40 40v-16c-13.253906 0-24-10.742187-24-24zm0 0"/><path d="m192 168.015625h16v16h-16zm0 0"/><path d="m272 160.015625h16v16h-16zm0 0"/><path d="m240 48.015625h16v16h-16zm0 0"/></svg>