<svg id="Capa_1" enable-background="new 0 0 508.289 508.289" height="512" viewBox="0 0 508.289 508.289" width="512" xmlns="http://www.w3.org/2000/svg"><g><path d="m55.891 500.789 29.188-.27c1.739-.016 3.435-.544 4.875-1.518l337.336-228.119-18.949-28.021-357.489 241.748c-7.263 4.912-3.728 16.261 5.039 16.18z" fill="#804e2b"/><path d="m452.398 500.789-29.188-.27c-1.739-.016-3.435-.544-4.875-1.518l-337.335-228.119 18.949-28.021 357.489 241.748c7.263 4.912 3.728 16.261-5.04 16.18z" fill="#b36d3c"/><path d="m91.675 242.069h322.207v43.558h-322.207z" fill="#655e67"/><path d="m105.882 25.659h293.794v98.556h-293.794z" fill="#655e67"/><path d="m369.676 25.659h30v98.556h-30z" fill="#544f56"/><g fill="#995e34"><path d="m77.469 152.675h28.413v-131.875c0-7.345-5.955-13.3-13.3-13.3h-1.813c-7.345 0-13.3 5.955-13.3 13.3z"/><path d="m399.676 152.675h28.413v-131.875c0-7.345-5.955-13.3-13.3-13.3h-1.813c-7.345 0-13.3 5.955-13.3 13.3z"/><path d="m77.469 167.487h28.413v87.327h-28.413z"/><path d="m399.676 167.487h28.413v87.327h-28.413z"/></g><path d="m125.007 176.852h-66.033c-6.53 0-11.824-5.294-11.824-11.823v-1.612c0-6.53 5.294-11.824 11.824-11.824h66.033c6.53 0 11.824 5.294 11.824 11.824v1.612c-.001 6.529-5.294 11.823-11.824 11.823z" fill="#c27e4e"/><circle cx="413.882" cy="262.971" fill="#b36d3c" r="26.481"/><path d="m446.898 176.852h-66.033c-6.53 0-11.824-5.294-11.824-11.823v-1.612c0-6.53 5.294-11.824 11.824-11.824h66.033c6.53 0 11.823 5.294 11.823 11.824v1.612c.001 6.529-5.293 11.823-11.823 11.823z" fill="#c27e4e"/><circle cx="91.675" cy="262.971" fill="#b36d3c" r="26.481"/><path d="m461.639 478.396-163.913-110.844 106.151-71.784c.108-.073.207-.155.31-.233 3.074.917 6.327 1.417 9.695 1.417 18.737 0 33.982-15.244 33.982-33.981 0-10.49-4.78-19.883-12.274-26.121v-52.498h11.309c10.655 0 19.323-8.668 19.323-19.323v-1.612c0-10.655-8.668-19.324-19.323-19.324h-11.309v-123.293c0-11.469-9.331-20.8-20.8-20.8h-1.814c-10.572 0-19.309 7.935-20.613 18.159h-191.852c-4.142 0-7.5 3.358-7.5 7.5s3.358 7.5 7.5 7.5h191.665v83.556h-278.794v-83.556h57.129c4.142 0 7.5-3.358 7.5-7.5s-3.358-7.5-7.5-7.5h-57.316c-1.304-10.224-10.04-18.159-20.613-18.159h-1.813c-11.469 0-20.8 9.331-20.8 20.8v123.293h-10.995c-10.655 0-19.324 8.669-19.324 19.324v1.612c0 10.655 8.668 19.323 19.324 19.323h10.995v52.498c-7.494 6.238-12.274 15.631-12.274 26.121 0 18.737 15.244 33.981 33.98 33.981 4.04 0 7.916-.712 11.513-2.011l107.376 72.612-163.914 110.843c-6.02 4.071-8.612 11.467-6.451 18.406 2.146 6.888 8.404 11.488 15.605 11.488.052 0 .104 0 .156-.001l29.187-.27c3.223-.029 6.338-.999 9.008-2.805 0 0 159.371-107.879 159.776-108.334l160.2 108.334c2.67 1.806 5.785 2.776 9.008 2.805l29.189.27c.053.001.104.001.156.001 7.201 0 13.46-4.6 15.605-11.488 2.162-6.939-.431-14.336-6.45-18.406zm-194.105-131.262 79.864-54.007h33.607l-96.668 65.371zm-79.864-54.007h132.95l-66.475 44.953zm226.212-11.176c-10.466 0-18.98-8.515-18.98-18.981s8.515-18.981 18.98-18.981c10.467 0 18.982 8.515 18.982 18.981-.001 10.467-8.516 18.981-18.982 18.981zm6.707-52.293c-2.169-.436-4.411-.668-6.707-.668-2.295 0-4.537.232-6.706.668v-45.306h13.413zm30.633-66.242v1.612c0 2.384-1.939 4.323-4.323 4.323h-66.033c-2.384 0-4.323-1.939-4.323-4.323v-1.612c0-2.384 1.939-4.324 4.323-4.324h66.033c2.383 0 4.323 1.94 4.323 4.324zm-44.046-142.616c0-3.198 2.602-5.8 5.8-5.8h1.814c3.198 0 5.8 2.602 5.8 5.8v123.293h-13.413v-19.878-98.556-4.859zm-15 110.915v12.378h-11.311c-10.655 0-19.323 8.669-19.323 19.324v1.612c0 10.655 8.668 19.323 19.323 19.323h11.311v50.218h-120.234c-4.143 0-7.5 3.358-7.5 7.5s3.357 7.5 7.5 7.5h110.718c-1.773 4.115-2.759 8.644-2.759 13.401 0 5.445 1.294 10.59 3.58 15.156h-261.405c2.286-4.566 3.58-9.712 3.58-15.156 0-4.757-.987-9.287-2.759-13.401h119.045c4.142 0 7.5-3.358 7.5-7.5s-3.358-7.5-7.5-7.5h-128.56v-50.218h11.625c10.655 0 19.323-8.668 19.323-19.323v-1.612c0-10.655-8.669-19.324-19.323-19.324h-11.625v-12.378zm-307.207-110.915c0-3.198 2.602-5.8 5.8-5.8h1.813c3.198 0 5.8 2.602 5.8 5.8v4.859 98.556 19.878h-13.413zm-30.319 144.228v-1.612c0-2.384 1.939-4.324 4.324-4.324h66.033c2.384 0 4.323 1.939 4.323 4.324v1.612c0 2.384-1.94 4.323-4.323 4.323h-66.033c-2.384.001-4.324-1.939-4.324-4.323zm30.319 19.324h13.413v45.306c-2.169-.436-4.411-.668-6.707-.668-2.295 0-4.538.232-6.706.668zm-12.274 78.619c0-10.466 8.515-18.981 18.98-18.981 10.466 0 18.981 8.515 18.981 18.981s-8.515 18.981-18.981 18.981c-10.466-.001-18.98-8.515-18.98-18.981zm13.058 229.817c-.22.149-.477.229-.743.231l-29.188.27c-.307.001-1.003.009-1.301-.948-.298-.958.284-1.352.532-1.52l168.899-114.216 16.804 11.364zm368.015-.447c-.297.957-.99.953-1.301.948l-29.189-.27c-.266-.002-.522-.082-.743-.231l-295.251-199.66h33.608l292.344 197.694c.249.168.831.561.532 1.519z"/></g></svg>