<svg xmlns="http://www.w3.org/2000/svg" viewBox="0 0 497.8 492.23"><defs><style>.cls-1{fill:#3451be;}</style></defs><g id="Calque_2" data-name="Calque 2"><g id="Calque_1-2" data-name="Calque 1"><path class="cls-1" d="M274.58,43.65a45.36,45.36,0,0,1-1.49,6.9q-1.47,5.67-2.36,6a57.79,57.79,0,0,1-20.05,3.32,26.89,26.89,0,0,1-19.94-9,28.62,28.62,0,0,1-8-20.71,30.61,30.61,0,0,1,8.75-21.5A27.44,27.44,0,0,1,252.54,0a87.11,87.11,0,0,1,20.3,2.91q.45.1,1,6t.55,7.21c0,.89-.82,1.32-2.42,1.29-.06,0-.54-.09-1.42-.29a15,15,0,0,0-1.41-3.4,20,20,0,0,0-3-3.87,14.7,14.7,0,0,0-5.46-3.42A22.66,22.66,0,0,0,252.9,5Q237,4.74,236.61,28.54q-.18,11.12,4.58,18.79a16.2,16.2,0,0,0,25.19,3.2,10.77,10.77,0,0,0,2.14-3.12c.65-1.32,1.14-2.44,1.48-3.35a5.35,5.35,0,0,1,.6-1.37C273,42.73,274.36,43.05,274.58,43.65Z"/><path class="cls-1" d="M291.13,29.21A21.59,21.59,0,0,1,319.69,37a19.13,19.13,0,0,1,2.13,15.4,19.19,19.19,0,0,1-9.58,12.23,21.66,21.66,0,0,1-28.6-7.76,19.06,19.06,0,0,1-2.13-15.4A19.09,19.09,0,0,1,291.13,29.21Zm13.33,2.6a5.3,5.3,0,0,0-4.65.86,10.53,10.53,0,0,0-3.36,3.92,29.59,29.59,0,0,0-2,5.48q-4.73,17.42,4.11,19.81a5.73,5.73,0,0,0,6.23-2.09,19.59,19.59,0,0,0,3.9-7.78Q313.47,34.27,304.46,31.81Z"/><path class="cls-1" d="M345.91,33.6a34.69,34.69,0,0,0,2.43-5.93q.23-1.47-3.52-3.32L344.1,24c-.32-.16-.21-.77.31-1.83s.83-1.28,1.15-1.12c1.72.65,3.49,1.25,5.29,1.81s3.36,1,4.66,1.3,2.48.56,3.54.76l2.51.44.92.15.15.08c.22.1.35.37.41.79a2.89,2.89,0,0,1,0,1.08,38,38,0,0,0-4.84,7.62L341.29,69.16a36.38,36.38,0,0,0-3,7.53c-.07.43.46,1.22,1.61,2.38a12,12,0,0,0,2.44,2.09c.15.08,0,.56-.37,1.45a5.2,5.2,0,0,1-.93,1.58q-.84-.51-4.8-2.81c-2.65-1.54-4.58-2.61-5.81-3.21s-3.31-1.51-6.11-2.66l-5.12-2.08a2.9,2.9,0,0,1,.48-1.79c.43-.87.75-1.26,1-1.16a11.57,11.57,0,0,0,3.3.74c1.62.2,2.57.14,2.86-.18a30.19,30.19,0,0,0,3.54-5.78Z"/><path class="cls-1" d="M376.6,50.67a35.19,35.19,0,0,0,3.28-5.52c.29-.94-.7-2.21-3-3.8l-.65-.45c-.3-.21-.11-.79.57-1.77.57-.82,1-1.14,1.3-.94,1.61.91,3.26,1.77,5,2.59s3.17,1.48,4.41,2,2.37.92,3.39,1.27l2.41.81.89.28.14.11c.2.13.29.41.28.84a2.87,2.87,0,0,1-.19,1.06,37.86,37.86,0,0,0-5.92,6.81l-21.75,31.2a36.53,36.53,0,0,0-4.1,7c-.14.41.27,1.27,1.23,2.59a12.39,12.39,0,0,0,2.1,2.43c.15.1-.05.56-.58,1.38a4.91,4.91,0,0,1-1.15,1.42q-.75-.63-4.33-3.49c-2.39-1.91-4.14-3.26-5.26-4s-3.06-2-5.66-3.55-4.18-2.49-4.75-2.81c-.06-.33.19-.89.74-1.7s.94-1.14,1.13-1a12,12,0,0,0,3.16,1.22c1.57.44,2.52.52,2.85.25a30.75,30.75,0,0,0,4.37-5.2Z"/><path class="cls-1" d="M408.92,86.76a16.16,16.16,0,0,1,5.18,13q-.48,7.36-4.56,11.45c-1,1-1.79,1.4-2.48,1.29a6.06,6.06,0,0,1-2.8-1.91L390,96.41c-.25-.25-.53-.23-.82.06a14.58,14.58,0,0,0-4.16,8,8.94,8.94,0,0,0,2.81,8.19,18.47,18.47,0,0,0,4.56,3.35,18.07,18.07,0,0,0,3.72,1.57c.81.18,1.95.38,3.42.59.21.54,0,1.13-.62,1.76a3.89,3.89,0,0,1-1.51,1c-1.42.59-3.87.54-7.35-.17a17.62,17.62,0,0,1-9.12-4.94,19.14,19.14,0,0,1-5.78-14.16,19.6,19.6,0,0,1,5.91-14.31A20.27,20.27,0,0,1,395,81Q402.82,80.66,408.92,86.76Zm-3.76,3.15a5.31,5.31,0,0,0-5.94-1.22,15.12,15.12,0,0,0-5.74,3.5c-.26.25-.23.53.06.82l8,8c.58.59,1.28.48,2.07-.31a10.47,10.47,0,0,0,3-5.57A5.44,5.44,0,0,0,405.16,89.91Z"/><path class="cls-1" d="M439.53,124.89a21.82,21.82,0,0,1,3,6.62,17.6,17.6,0,0,1,.74,5.09,11.55,11.55,0,0,1-.47,2.76c-4.55,3-7.71,3.16-9.47.48q-1.91-2.9.83-6.82a7.5,7.5,0,0,0,1.47-3.35,5,5,0,0,0-1-3.35q-3.92-5.94-15.05,1.39-12.54,8.27-7,16.65a18.4,18.4,0,0,0,3.78,4.21,18.14,18.14,0,0,0,3.32,2.29c.76.34,1.84.77,3.23,1.27.1.58-.23,1.11-1,1.6a4,4,0,0,1-1.68.68c-1.56.32-4-.22-7.18-1.61a17.65,17.65,0,0,1-7.86-6.69,19.06,19.06,0,0,1-2.85-15.25A20.39,20.39,0,0,1,411.45,118a18.32,18.32,0,0,1,15-2.49A21.37,21.37,0,0,1,439.53,124.89Z"/><path class="cls-1" d="M448.44,155.16l-2.23-5.33c-.18-.44.58-1,2.27-1.72a1.92,1.92,0,0,1,1-.21,50.46,50.46,0,0,0,7.51,5.54c.94.57,2.12,1.2,3.53,1.89l3.65,1.81,1.63.81a4.1,4.1,0,0,1,.3,1.51c0,.57-.09.9-.31,1l-8,3.36,3.7,8.85c.18.44,0,.78-.55,1a9.71,9.71,0,0,1-4.36.86l-3.63-8.69-19.43,8.1q-6.24,2.61-4.39,7a9,9,0,0,0,1.23,2.14,7.61,7.61,0,0,0,1.28,1.34,2.87,2.87,0,0,1,.6.52c.09.22-.09.57-.53,1a3.65,3.65,0,0,1-1.07.88q-1,.41-4.11-2.23a15.07,15.07,0,0,1-4.36-5.6,12.33,12.33,0,0,1-.4-8.93q1.47-4.43,7.79-7.05Z"/><path class="cls-1" d="M444.64,206a36.78,36.78,0,0,0-7.72,2.51c-.37.22-.63,1.15-.78,2.8a13,13,0,0,0-.06,3.17c.06.23-.39.46-1.34.69a5.72,5.72,0,0,1-1.81.26c-.08-.6-.39-2.41-.91-5.45s-.95-5.23-1.27-6.55-.95-3.51-1.86-6.37-1.47-4.62-1.7-5.3a3.72,3.72,0,0,1,1.71-.69c1-.23,1.45-.26,1.49-.08A11.71,11.71,0,0,0,432,194c.87,1.34,1.53,2,2,2a30.93,30.93,0,0,0,6.71-1l11.83-2.87q4.85-1.17,6.1-3.12a4.47,4.47,0,0,0,.7-2,14.9,14.9,0,0,0,.1-2.22c0-.64,0-1,0-1,2-.49,3.06-.59,3.12-.31a52.58,52.58,0,0,0,3,7.28c1.72,3.7,3,6.29,3.94,7.78,0,0,.18.35.49.88a1.13,1.13,0,0,1-.34,1,1.85,1.85,0,0,1-.81.61l-2.68.28c-1.3.13-2.45.26-3.42.37a24.48,24.48,0,0,0-2.77.49Zm33.16-19.56a6.55,6.55,0,0,1,9.07-2.19,6.4,6.4,0,0,1,2.95,4.08,6.27,6.27,0,0,1-.77,4.94,6.58,6.58,0,0,1-11.25-6.83Z"/><path class="cls-1" d="M497.7,240.44a23.09,23.09,0,0,1-.34,6.85c-.44,2-1.05,3.21-1.84,3.75a23.82,23.82,0,0,1-3.57.56,5.69,5.69,0,0,1-3.54-.88,3.83,3.83,0,0,1-1.81-3.15,4.21,4.21,0,0,1,1.29-3.36c1-1,1.9-2,2.84-2.9a3.86,3.86,0,0,0,1.27-3.09q-.22-2.83-4.41-3.84a32.61,32.61,0,0,0-10.12-.52l-3.63.29a.39.39,0,0,0-.41.48l.79,9.83c0,.29-.17.46-.58.49a10.26,10.26,0,0,1-4.69-.69l-.74-9.13a.47.47,0,0,0-.57-.49l-19.05,1.53a36.13,36.13,0,0,0-8,1.27c-.4.15-.81,1-1.22,2.59a12,12,0,0,0-.54,3.17q0,.26-1.44.42a5.35,5.35,0,0,1-1.83,0c0-.66,0-2.52,0-5.57s-.11-5.27-.22-6.63-.4-3.62-.84-6.62-.73-4.81-.84-5.46a2.93,2.93,0,0,1,1.78-.5c1-.07,1.47,0,1.49.24a12.28,12.28,0,0,0,1.06,3.21q1,2.25,1.62,2.37a30.4,30.4,0,0,0,6.78.08l20.29-1.62c.41,0,.61-.2.58-.5l-.47-5.93c0-.18.15-.28.51-.31a6.23,6.23,0,0,1,3.05.87,3.14,3.14,0,0,1,2,2.47l.2,2.48c0,.29.21.43.56.4l.62-.05a23.48,23.48,0,0,1,16.22,4.36A18.08,18.08,0,0,1,497.7,240.44Z"/><path class="cls-1" d="M452.78,271.08a20.33,20.33,0,0,1,3.24.78,6.81,6.81,0,0,1,1.72.74c.27.19.4.35.38.47l0,.09-2.54,21.29,0,.09c-.05.35-.35.48-.87.39a19.18,19.18,0,0,1-3.33-.84,4.82,4.82,0,0,1-1.78-.93l-.48-.36,2.63-21.27,0-.18c0-.06.11-.13.3-.22A1.36,1.36,0,0,1,452.78,271.08Z"/><path class="cls-1" d="M412.85,343.76a10.57,10.57,0,0,0-1.17,3.92q-.23,2.19,1,2.88c.11.05,2.2.35,6.29.88l7,.75a1,1,0,0,0,.61-.38q.89-1.44,4.14-7.46,2.8-5.14,4.2-7.93a.75.75,0,0,0-.09-.76l-4.54-5.79q-2.67-3.48-3.92-4.15a2.43,2.43,0,0,0-2.71.35,8.52,8.52,0,0,0-2.16,2,18.53,18.53,0,0,0-1.11,1.77c-.14.13-.6,0-1.38-.44a6.54,6.54,0,0,1-1.55-1c.42-.65,1.27-2,2.57-3.91s2.3-3.59,3-4.9,1.46-2.91,2.27-4.83,1.45-3.39,1.93-4.41a1.86,1.86,0,0,1,1.34.32c1.1.6,1.62.94,1.56,1.05a12,12,0,0,0-.88,3.57,6.46,6.46,0,0,0,.2,3.64,22.79,22.79,0,0,0,1.61,2.54c.67.94,1.22,1.69,1.65,2.26l.73.9,30.32,38.79a3.36,3.36,0,0,1,.46,4,2.46,2.46,0,0,1-2,1.32l-48.29-5.46q-4.4-.47-7.8-.9c-1-.13-2.11.38-3.32,1.54a13.74,13.74,0,0,0-2.4,2.85c-.11.21-.61.07-1.49-.41a4.69,4.69,0,0,1-1.48-1c.11-.21,1.09-1.76,2.92-4.64s3.11-5,3.85-6.35q.29-.56,5.77-12.14a2.94,2.94,0,0,1,1.77.56C412.59,343.21,413,343.55,412.85,343.76Zm25.93-2.52c-1,1.48-2.13,3.36-3.37,5.66q-1.7,3.12-2.85,5.63l.26.44,17,2-10.68-13.67C439,341.14,438.84,341.14,438.78,341.24Z"/><path class="cls-1" d="M402,415.38a10,10,0,0,1-9,2.77q-5.37-.84-11.59-7.19l-6.16-6.28a35.82,35.82,0,0,0-6.1-5.34c-.38-.21-1.3,0-2.77.73a11.84,11.84,0,0,0-2.78,1.6c-.13.13-.55-.15-1.25-.83a4.89,4.89,0,0,1-1.18-1.39q.76-.63,4.24-3.6t5-4.42q1.53-1.49,4.38-4.73t3.56-4.05c.34,0,.85.36,1.53,1.06s.95,1.13.78,1.29a10.28,10.28,0,0,0-1.67,2.75c-.64,1.38-.86,2.25-.65,2.63a30.54,30.54,0,0,0,4.28,5.26l5.6,5.71q4.61,4.69,7.86,5.42t6.12-2.07a8.6,8.6,0,0,0,2.46-3.84,3.21,3.21,0,0,0-.82-3.25L393.27,387a36.22,36.22,0,0,0-6.1-5.34c-.38-.21-1.27,0-2.68.64a10.54,10.54,0,0,0-2.62,1.45c-.13.12-.54-.16-1.25-.83a5,5,0,0,1-1.18-1.4q.82-.68,4.15-3.51t4.79-4.25c1-1,2.53-2.63,4.54-4.89s3.23-3.65,3.66-4.14q.5,0,1.53,1.05c.68.7.94,1.13.77,1.29a12,12,0,0,0-1.79,2.88c-.73,1.46-1,2.37-.78,2.75a30.16,30.16,0,0,0,4.28,5.26l8.52,8.7q3.48,3.56,5.81,3.64a4.34,4.34,0,0,0,2.14-.48,16.09,16.09,0,0,0,2-1c.51-.33.78-.47.82-.43,1.45,1.48,2.07,2.32,1.86,2.53a21.12,21.12,0,0,0-2.2,2.84c-.95,1.39-2.18,3.23-3.66,5.52s-2.66,4.06-3.51,5.31a1,1,0,0,0-.23.34,1,1,0,0,1-.22.34l-.07.19a1.16,1.16,0,0,1-1,.21,1.69,1.69,0,0,1-1-.35q-1.5-2-1.68-2.22c-.21-.21-.35-.32-.44-.32a1.4,1.4,0,0,0-.13.75A17.41,17.41,0,0,1,402,415.38Z"/><path class="cls-1" d="M361.62,445.38q-5.37,3.14-10,1.87t-9.13-9l-7.27-12.43q-1.53-2.61-3.36-1.54a5,5,0,0,0-2,2.53,1.42,1.42,0,0,1-1.21-.84,6.69,6.69,0,0,1-1.12-3.15,15.78,15.78,0,0,1,2.26-4.15,12.45,12.45,0,0,1,3.91-3.78,7.25,7.25,0,0,1,4.18-.95,6.24,6.24,0,0,1,3.73,1.26,2.91,2.91,0,0,0,.36-.78c.2-.49.47-1.08.82-1.76a23.6,23.6,0,0,1,1.33-2.22,17.1,17.1,0,0,1,2.11-2.47,14.42,14.42,0,0,1,2.85-2.17,10.87,10.87,0,0,1,8.08-1.59,9.37,9.37,0,0,1,7.18,8.77,12,12,0,0,1-.56,4.14,15.63,15.63,0,0,1-2.21,4.07,43.49,43.49,0,0,1-2.83,3.61q-1.25,1.39-3.28,3.46c-1.35,1.37-2.28,2.35-2.77,2.91a1.22,1.22,0,0,0,0,1.55l1.61,2.76q3.68,6.3,7.52,4.05,4.44-2.6,1.44-7.74a3.1,3.1,0,0,1-.07-3.3,7,7,0,0,1,2.59-2.6c2.36-1.37,4.42-1.55,6.18-.52q2.3,3.91-1,10.2A24,24,0,0,1,361.62,445.38Zm-14.15-31.25a5.27,5.27,0,0,0-2.54,2.77,3.44,3.44,0,0,0,.25,3l4.53,7.75c.07-.11.47-.57,1.2-1.37s1.2-1.34,1.39-1.59l1.13-1.43a6.58,6.58,0,0,0,1-1.64c.15-.39.32-.89.52-1.48a3.34,3.34,0,0,0,.17-1.65,4.44,4.44,0,0,0-.57-1.52q-1.62-2.76-3.52-3.29A4.5,4.5,0,0,0,347.47,414.13Z"/><path class="cls-1" d="M332.32,467.59a35,35,0,0,0,2.59,5.88q.9,1.18,4.83-.23l.75-.27c.33-.12.7.38,1.1,1.49.34,1,.35,1.48,0,1.6q-2.5,1.19-5,2.55t-4.17,2.45c-1.12.72-2.13,1.39-3,2s-1.56,1.13-2.06,1.5l-.75.55-.16.06a1,1,0,0,1-.85-.26,3,3,0,0,1-.75-.77,38.07,38.07,0,0,0-2.12-8.78L310,439.56a36.35,36.35,0,0,0-3.32-7.4c-.25-.35-1.19-.52-2.82-.49a11.89,11.89,0,0,0-3.2.29c-.17.06-.43-.36-.79-1.27a5.07,5.07,0,0,1-.49-1.76c.64-.16,2.42-.67,5.36-1.5s5.06-1.49,6.34-1.95,3.39-1.33,6.16-2.55,4.46-2,5.05-2.24c.31.14.62.68,1,1.6s.38,1.41.16,1.5a11.75,11.75,0,0,0-2.83,1.86c-1.26,1-1.89,1.75-1.86,2.18a31.28,31.28,0,0,0,1.7,6.57Z"/><path class="cls-1" d="M291.77,470.75c-1.29.19-3.35.61-6.19,1.24s-4.58,1-5.22,1.18a6.16,6.16,0,0,1-.54-1.8c-.14-.94-.09-1.43.15-1.46a12.22,12.22,0,0,0,3.19-1.2c1.36-.68,2-1.32,1.91-1.9l-.2-.78q-.39-1.38-9.41-16.12-4.05,13.81-4.38,15.21a6.71,6.71,0,0,0-.14,2.72,2.32,2.32,0,0,0,.67,1.16,5,5,0,0,0,2.19,1.11,9.07,9.07,0,0,0,3.88.14c.24,0,.43.47.59,1.53a5.68,5.68,0,0,1,.07,1.69l-5.29.39q-4.21.31-6.33.63c-1.23.18-2.85.53-4.87,1s-3.5.86-4.43,1.06a3.36,3.36,0,0,1-.57-1.44c-.18-1.17-.15-1.77.09-1.81a13.72,13.72,0,0,0,3.78-1.46,5.7,5.7,0,0,0,3.08-3.16l11.06-37.86q4.92-17,14.68-18.45a6.38,6.38,0,0,1,4.47.77,4.23,4.23,0,0,1,2.11,3,4.74,4.74,0,0,1-1.4,4.43q-11.16,1.67-13.48,9l-1.86,6.21,17.42,27,.6,1a5.07,5.07,0,0,0,3.07,2.2,8.65,8.65,0,0,0,3.23.28c.23,0,.41.38.55,1.26a5.15,5.15,0,0,1,.11,2q-.71.11-5.59.48T291.77,470.75Z"/><path class="cls-1" d="M242.82,469.2l5.76.31c.48,0,.66,1,.56,2.79a1.81,1.81,0,0,1-.23,1,50.44,50.44,0,0,0-8.25,4.35c-.92.6-2,1.39-3.24,2.36l-3.21,2.5c-.9.69-1.38,1.06-1.44,1.12a4.4,4.4,0,0,1-1.49-.39c-.52-.24-.78-.48-.76-.71l.47-8.7-9.58-.53c-.47,0-.69-.33-.66-.92a9.68,9.68,0,0,1,1.12-4.3l9.41.51,1.15-21q.38-6.75-4.42-7a8.89,8.89,0,0,0-2.46.18,7.26,7.26,0,0,0-1.76.57,3.63,3.63,0,0,1-.73.31c-.24,0-.47-.32-.71-.93a3.59,3.59,0,0,1-.32-1.35q.06-1.06,3.79-2.73a15.21,15.21,0,0,1,6.94-1.49,12.36,12.36,0,0,1,8.22,3.52q3.33,3.25,3,10.09Z"/><path class="cls-1" d="M201.91,482.06a6.54,6.54,0,0,1-2,9.12,6.4,6.4,0,0,1-5,.89,6.29,6.29,0,0,1-4.12-2.83,6.66,6.66,0,0,1,2-9.13,6.32,6.32,0,0,1,4.92-.9A6.47,6.47,0,0,1,201.91,482.06Zm-3.23-38.36a36.56,36.56,0,0,0,1.08-8c0-.43-.75-1.07-2.18-1.92a12.87,12.87,0,0,0-2.83-1.43c-.23-.05-.24-.55,0-1.51a5.44,5.44,0,0,1,.56-1.74q.84.27,5.3,1.55t6.45,1.7q2.08.44,6.54,1.08l5.52.77A3.85,3.85,0,0,1,219,436q-.32,1.42-.57,1.38a11.53,11.53,0,0,0-3.43.08c-1.59.2-2.48.5-2.69.88a30.91,30.91,0,0,0-2,6.47l-2.55,11.91c-.69,3.24-.64,5.52.17,6.85a4.45,4.45,0,0,0,1.54,1.51,12.79,12.79,0,0,0,2,1.05c.59.25.87.4.86.46-.43,2-.8,3-1.09,3a52.75,52.75,0,0,0-7.85-.46c-4.08-.05-7,0-8.72.18-.05,0-.39,0-1,.06a1.15,1.15,0,0,1-.79-.76,1.85,1.85,0,0,1-.2-1c.16-.45.46-1.3.91-2.53s.83-2.32,1.15-3.25a25.34,25.34,0,0,0,.76-2.7Z"/><path class="cls-1" d="M157.62,457.71a23.67,23.67,0,0,1-5.75-3.3,18.12,18.12,0,0,0-4.19-2.64,7.71,7.71,0,0,0-2.66-.21,12.93,12.93,0,0,1-2.17,0,5,5,0,0,1-1.22-1.43c-.6-.87-.85-1.44-.73-1.71a5.07,5.07,0,0,1,.31-.5c.18-.28.41-.68.7-1.2s.62-1.12,1-1.79.82-1.54,1.33-2.58,1-2.1,1.45-3.2l12.88-30.44a36.59,36.59,0,0,0,2.57-7.69q.09-.64-1.74-2.28a12.31,12.31,0,0,0-2.55-1.95c-.16-.07-.07-.56.29-1.47a5.2,5.2,0,0,1,.83-1.63c.58.31,2.23,1.16,5,2.53s4.72,2.34,6,2.87,3.4,1.33,6.26,2.31,4.61,1.58,5.24,1.78A3,3,0,0,1,180,405c-.38.9-.68,1.31-.9,1.22a11.59,11.59,0,0,0-3.34-.55c-1.62-.11-2.57,0-2.84.34a31.3,31.3,0,0,0-3.21,6l-3,7.2c-.32.77-.38,1.2-.16,1.29a.24.24,0,0,0,.2,0,13.47,13.47,0,0,1,8.45.78,18.88,18.88,0,0,1,10.06,10.33,18.57,18.57,0,0,1,0,15.24,19.71,19.71,0,0,1-11.5,11.34A20.92,20.92,0,0,1,157.62,457.71Zm2.44-4.18q7.13,3,12.28-9.18a54.93,54.93,0,0,0,2-5.51,32.2,32.2,0,0,0,1.08-5.18,8.46,8.46,0,0,0-.64-4.86,6.46,6.46,0,0,0-3.47-3.1,7.64,7.64,0,0,0-5-.42,4.64,4.64,0,0,0-3.43,2.74l-6.44,15.23Q153.35,450.69,160.06,453.53Z"/><path class="cls-1" d="M100.65,409.69l10.53-13.88c1.87-2.45,2.76-4.12,2.68-5a2.89,2.89,0,0,0-.73-1.39,8.28,8.28,0,0,0-1.42-1.36l-.71-.54a.7.7,0,0,1,.15-.78c1-1.37,1.7-1.95,2-1.73.74.49,1.73,1.09,3,1.81s2.48,1.43,3.74,2.12l3.6,1.95c1.14.6,2.07,1.11,2.81,1.52l1.15.54q.42.32-.54,1.59l-2,2.62a.76.76,0,0,0-.2.41q0,.12.27.09a17,17,0,0,1,6.5.47,19,19,0,0,1,7.16,3.43,9.72,9.72,0,0,1,3.9,8.76,19.4,19.4,0,0,1-4.26,10.82L133,428c-2,2.64-2.93,4.74-2.76,6.28a4.45,4.45,0,0,0,.79,2,15.19,15.19,0,0,0,1.32,1.79c.4.45.59.7.55.75-1.25,1.65-2,2.39-2.23,2.21a54.48,54.48,0,0,0-6.89-3.72q-5.53-2.7-8-3.57l-.46-.12c-.27-.13-.43-.22-.48-.25a1.18,1.18,0,0,1-.36-1,1.74,1.74,0,0,1,.21-1q5.51-5.64,6.15-6.49l5.75-7.57q4.19-5.53,4.47-8.83c.18-2.2-.83-4.15-3-5.83a6.5,6.5,0,0,0-4.45-1.64,4.07,4.07,0,0,0-3,1.53l-7.69,10.12q-3,4-2.75,6.27a4.33,4.33,0,0,0,.79,2,15.19,15.19,0,0,0,1.32,1.79c.4.45.58.7.55.75-1.26,1.65-2,2.39-2.24,2.21a54.06,54.06,0,0,0-6.88-3.72,86.68,86.68,0,0,0-8-3.57,3,3,0,0,0-.53-.18l-.41-.2a1.23,1.23,0,0,1-.36-1,1.71,1.71,0,0,1,.22-1Q100.07,410.48,100.65,409.69Z"/><path class="cls-1" d="M69.78,391.38a16.21,16.21,0,0,1-3.84-13.45q1.23-7.26,5.7-10.93c1.06-.86,1.92-1.2,2.6-1a6.07,6.07,0,0,1,2.59,2.18l12.73,15.54c.22.28.5.28.82,0a14.58,14.58,0,0,0,5-7.56,8.93,8.93,0,0,0-2-8.43,18.37,18.37,0,0,0-4.2-3.8A18.05,18.05,0,0,0,85.63,362c-.8-.27-1.91-.58-3.35-.94-.16-.56.11-1.12.8-1.68a4,4,0,0,1,1.6-.86c1.47-.44,3.91-.13,7.29.92a17.7,17.7,0,0,1,8.58,5.85A19.13,19.13,0,0,1,104.86,380a19.55,19.55,0,0,1-7.32,13.63,20.28,20.28,0,0,1-14.45,4.94Q75.25,398.05,69.78,391.38Zm4.06-2.75a5.31,5.31,0,0,0,5.79,1.81,15,15,0,0,0,6.07-2.9c.27-.23.28-.5,0-.82L78.57,378c-.53-.64-1.22-.61-2.1.1A10.54,10.54,0,0,0,73,383.33,5.48,5.48,0,0,0,73.84,388.63Z"/><path class="cls-1" d="M62.86,342a21.41,21.41,0,0,1-3.13,1.15,7.14,7.14,0,0,1-1.85.33q-.5,0-.57-.18l0-.08-9.66-19.15,0-.08c-.15-.33,0-.6.51-.82a20.52,20.52,0,0,1,3.24-1.14,4.78,4.78,0,0,1,2-.2l.59,0,9.57,19.19.08.16c0,.06,0,.17-.14.35A1.25,1.25,0,0,1,62.86,342Z"/><path class="cls-1" d="M41,244.05a45.61,45.61,0,0,1,7,.63q5.81.76,6.25,1.6a57.85,57.85,0,0,1,5.77,19.49,26.92,26.92,0,0,1-6.47,20.9,28.59,28.59,0,0,1-19.56,10.51,30.65,30.65,0,0,1-22.41-6A27.4,27.4,0,0,1,.44,271.31,86.57,86.57,0,0,1,.82,250.8q0-.45,5.8-1.75c3.84-.86,6.2-1.33,7.09-1.43s1.41.65,1.58,2.24c0,.06,0,.54-.11,1.45a14.45,14.45,0,0,0-3.2,1.82,19.31,19.31,0,0,0-3.48,3.41,14.63,14.63,0,0,0-2.72,5.83,22.59,22.59,0,0,0-.44,8Q7,286.15,30.72,283.6q11.06-1.2,18.08-6.87a16.2,16.2,0,0,0,.08-25.39,11.22,11.22,0,0,0-3.36-1.74c-1.4-.47-2.56-.82-3.51-1a5.54,5.54,0,0,1-1.44-.43C40.31,245.71,40.47,244.35,41,244.05Z"/><path class="cls-1" d="M22.47,205.9a11.57,11.57,0,0,1,4.3-7.12,16.15,16.15,0,0,1,6.63,2,4.1,4.1,0,0,1,1.65,4.31c-.16,1.18-1,2.43-2.58,3.77s-2.42,2.6-2.58,3.77c-.24,1.76.57,3.15,2.43,4.15a18,18,0,0,0,6.15,2L47.36,220a35.81,35.81,0,0,0,8,.47c.43-.06,1-.77,1.73-2.14a11,11,0,0,0,1.18-2.75c0-.18.52-.21,1.5-.11a4.94,4.94,0,0,1,1.78.38c-.15.69-.53,2.47-1.13,5.31s-1,5-1.18,6.3-.39,3.62-.6,6.65-.32,4.86-.35,5.51a2.89,2.89,0,0,1-1.85.1c-1-.13-1.44-.31-1.41-.55a11.65,11.65,0,0,0-.34-3.36c-.32-1.6-.68-2.49-1.07-2.66A30.66,30.66,0,0,0,47,231.61L35,230c-3.29-.46-5.56-.23-6.82.67a4.41,4.41,0,0,0-1.4,1.69,16.1,16.1,0,0,0-.91,2c-.19.57-.32.86-.38.85-2.06-.28-3.06-.57-3-.87a22.77,22.77,0,0,0,0-3.58q-.15-2.53-.49-6.62t-.47-6.34a7.39,7.39,0,0,1-.13-1A1.2,1.2,0,0,1,22,216a1.74,1.74,0,0,1,1-.31c.69.21,1.44.41,2.25.58a12.67,12.67,0,0,1,1.56.39Q21.7,211.54,22.47,205.9Z"/><path class="cls-1" d="M15.6,157.06a4.54,4.54,0,0,1,1.87-2.58,2.4,2.4,0,0,1,1.93-.39q2.1.75,4.59,8.39c1.66,5.1,2.37,8,2.11,8.74a1.48,1.48,0,0,1-.88.72,1.6,1.6,0,0,1-1.14.16A12.49,12.49,0,0,1,22.23,170c-1.07-1.33-2.29-3-3.67-4.91s-2.46-3.58-3.23-4.93A4.33,4.33,0,0,1,15.6,157.06Zm17,12.54a16.2,16.2,0,0,1,9.56-10.21q6.87-2.69,12.3-.73c1.29.46,2,1,2.23,1.69a6.12,6.12,0,0,1-.54,3.35l-6.79,18.9c-.12.34,0,.57.41.71a14.45,14.45,0,0,0,9,.36,8.92,8.92,0,0,0,6.23-6,18.42,18.42,0,0,0,1.1-5.56,17.76,17.76,0,0,0-.17-4c-.17-.82-.48-1.94-.92-3.35a1.65,1.65,0,0,1,1.86-.19,4.05,4.05,0,0,1,1.56.94q1.69,1.56,3,6.73a17.68,17.68,0,0,1-.6,10.36A19.14,19.14,0,0,1,60.48,193.8a19.59,19.59,0,0,1-15.47.73,20.27,20.27,0,0,1-11.66-9.85A18.08,18.08,0,0,1,32.63,169.6Zm4.45,2.07a5.29,5.29,0,0,0,1.42,5.89,15,15,0,0,0,5.61,3.71c.33.12.57,0,.71-.4l3.81-10.63q.42-1.17-1.17-1.74a10.39,10.39,0,0,0-6.3-.32A5.44,5.44,0,0,0,37.08,171.67Z"/><path class="cls-1" d="M53.49,126.52q3.3-5.28,8-6.3t12.28,3.72L86,131.55q2.56,1.6,3.7-.21a5,5,0,0,0,.61-3.17,1.4,1.4,0,0,1,1.46.17,6.75,6.75,0,0,1,2.47,2.27,16,16,0,0,1-.07,4.72,12.67,12.67,0,0,1-1.7,5.17,7.31,7.31,0,0,1-3.25,2.79,6.21,6.21,0,0,1-3.89.61,3.1,3.1,0,0,0,0,.87c.05.52.09,1.17.09,1.94a20.09,20.09,0,0,1-.14,2.58,16.15,16.15,0,0,1-.71,3.17,15,15,0,0,1-1.5,3.25,10.91,10.91,0,0,1-6.42,5.17,9.38,9.38,0,0,1-10.44-4.41,12.11,12.11,0,0,1-1.43-3.93,16,16,0,0,1,0-4.62,44.58,44.58,0,0,1,.83-4.51c.3-1.21.72-2.74,1.28-4.59s.93-3.14,1.1-3.87a1.23,1.23,0,0,0-.71-1.39l-2.71-1.69q-6.18-3.85-8.54-.08-2.72,4.38,2.33,7.53A3.09,3.09,0,0,1,60,142.2a6.88,6.88,0,0,1-1.09,3.51c-1.44,2.31-3.18,3.43-5.22,3.34q-3.84-2.38-3.88-9.48A24,24,0,0,1,53.49,126.52Zm27.09,21.06a5.29,5.29,0,0,0,1-3.65,3.41,3.41,0,0,0-1.62-2.52l-7.62-4.75c0,.14-.15.73-.42,1.78s-.44,1.74-.49,2.05-.17.91-.33,1.79a6.74,6.74,0,0,0-.16,1.94c0,.41.13.93.23,1.55a3.31,3.31,0,0,0,.62,1.54A4.53,4.53,0,0,0,73,148.38q2.72,1.69,4.65,1.27A4.46,4.46,0,0,0,80.58,147.58Z"/><path class="cls-1" d="M79.39,103l-3.93,4.23c-.33.35-1.16-.1-2.5-1.35a1.87,1.87,0,0,1-.6-.8A50.57,50.57,0,0,0,74.28,96c.13-1.1.22-2.43.26-4s.09-2.92.13-4.06.07-1.74.06-1.82a4.07,4.07,0,0,1,1.26-.9c.51-.25.86-.29,1-.13L83.4,91l6.53-7c.33-.35.7-.32,1.14.08a9.6,9.6,0,0,1,2.58,3.62l-6.4,6.9,15.43,14.33q4.95,4.59,8.22,1.08a9.2,9.2,0,0,0,1.43-2,7.11,7.11,0,0,0,.69-1.72,3.25,3.25,0,0,1,.23-.76c.16-.18.55-.16,1.16.05a3.57,3.57,0,0,1,1.25.61q.78.72-.33,4.67a15,15,0,0,1-3.29,6.28,12.29,12.29,0,0,1-8,4.07q-4.64.49-9.65-4.17Z"/><path class="cls-1" d="M95.61,63.35a6.32,6.32,0,0,1-4.42-2.46A6.24,6.24,0,0,1,89.84,56a6.42,6.42,0,0,1,2.48-4.39,6.52,6.52,0,0,1,9.2,1.12A6.52,6.52,0,0,1,100.46,62,6.46,6.46,0,0,1,95.61,63.35Zm31.59,22a36.74,36.74,0,0,0,5.49,6c.35.26,1.31.1,2.87-.45a12.59,12.59,0,0,0,2.91-1.27c.18-.14.58.17,1.18.94a5.12,5.12,0,0,1,1,1.54q-.75.48-4.58,3.09t-5.42,3.88q-1.68,1.32-5,4.34l-4.12,3.75c-.28-.07-.73-.49-1.33-1.26s-.84-1.21-.7-1.32a11.54,11.54,0,0,0,2.12-2.69c.86-1.35,1.2-2.23,1-2.63A30.13,30.13,0,0,0,119,93.55L111.42,84q-3.09-3.92-5.38-4.25a4.5,4.5,0,0,0-2.15.22,13.51,13.51,0,0,0-2.06.83c-.56.29-.86.42-.9.37-1.28-1.63-1.81-2.54-1.57-2.72a52.16,52.16,0,0,0,5.36-5.75,86.39,86.39,0,0,0,5.43-6.83,6.26,6.26,0,0,0,.6-.81,1.13,1.13,0,0,1,1.09-.12,1.85,1.85,0,0,1,.9.48l1.37,2.32c.66,1.13,1.25,2.12,1.77,3A23.34,23.34,0,0,0,117.47,73Z"/><path class="cls-1" d="M136.38,22.77a23.46,23.46,0,0,1,6.36-2.55c2-.42,3.37-.38,4.19.11a23.76,23.76,0,0,1,2,3,5.67,5.67,0,0,1,.69,3.59,3.85,3.85,0,0,1-2.11,3,4.22,4.22,0,0,1-3.59.23c-1.31-.46-2.58-.92-3.83-1.38a3.81,3.81,0,0,0-3.33.14q-2.49,1.38-1.65,5.6a32.42,32.42,0,0,0,3.74,9.42l1.78,3.18a.38.38,0,0,0,.6.17l8.61-4.81c.26-.15.49,0,.69.32a10.3,10.3,0,0,1,1.33,4.56l-8,4.46a.48.48,0,0,0-.21.73L153,69.18a36.37,36.37,0,0,0,4.49,6.76c.3.3,1.26.31,2.86,0a12.35,12.35,0,0,0,3.11-.82c.15-.09.48.28,1,1.12a5,5,0,0,1,.77,1.66q-.9.39-5,2.36c-2.77,1.31-4.74,2.3-5.93,3s-3.13,1.87-5.67,3.53-4.07,2.66-4.61,3c-.33-.09-.72-.56-1.2-1.41s-.61-1.34-.41-1.46a11.39,11.39,0,0,0,2.48-2.3c1.09-1.22,1.58-2,1.48-2.45a30.57,30.57,0,0,0-2.75-6.2L133.6,58.23c-.2-.37-.43-.47-.69-.33l-5.2,2.91c-.15.08-.32,0-.49-.34a6.19,6.19,0,0,1-.48-3.14,3.13,3.13,0,0,1,1.4-2.87l2.17-1.21c.26-.15.3-.38.13-.69l-.31-.54a23.43,23.43,0,0,1-2.79-16.56A18,18,0,0,1,136.38,22.77Z"/><path class="cls-1" d="M183.18,50.61a22,22,0,0,1-.63-3.32,7.49,7.49,0,0,1,0-1.89c.06-.33.16-.51.27-.54l.09,0,20.67-6.53.09,0c.35-.09.59.12.73.64a20.37,20.37,0,0,1,.61,3.42,4.75,4.75,0,0,1-.12,2l-.12.59L184,51.4l-.17.05c-.06,0-.17-.05-.33-.19A1.35,1.35,0,0,1,183.18,50.61Z"/></g></g></svg>