<svg xmlns="http://www.w3.org/2000/svg" viewBox="0 0 81.2 138.4"><defs><style>.cls-1{fill:#010101;}</style></defs><title>logo_1</title><g id="Layer_2" data-name="Layer 2"><g id="Layer_1-2" data-name="Layer 1"><path class="cls-1" d="M56.6,94.5a39.9,39.9,0,0,0,9.2-13.1,37.4,37.4,0,0,0,3-14.6c0-21.8-19-39.5-42.5-39.5V0H0V138.4H26.3V113.3a26,26,0,0,1,24.7,17,24.2,24.2,0,0,1,1.4,8.1H81.2C81.2,120.1,71.4,103.9,56.6,94.5ZM45.4,60.7a17.8,17.8,0,0,1,1.1,6.1A18.1,18.1,0,0,1,39,81.4a20.2,20.2,0,0,1-12.7,4.2V48C35.2,48,42.7,53.3,45.4,60.7Z"/></g></g></svg>