<svg xmlns="http://www.w3.org/2000/svg" viewBox="0 0 504.98 220.92"><defs><style>.cls-1{fill:#3451be;}</style></defs><g id="Calque_2" data-name="Calque 2"><g id="Calque_1-2" data-name="Calque 1"><path class="cls-1" d="M421.82,145.53l.38.76s0,0,0,.06l-.07.39.27.21a.49.49,0,0,0,.32.11c.54,0,2-.69,8-4.39l.53-.33-.43-.45C430.46,141.58,430.14,141.25,421.82,145.53Z"/><path class="cls-1" d="M171.89,214.74v1l.68,0v.08c0,.29.06.43.7.43s1.49-.1,3.24-.27v-1l-.3,0C176.13,214.53,175.93,214.48,171.89,214.74Z"/><path class="cls-1" d="M444.6,131.94l.48.8a.09.09,0,0,0,0,0l0,.39.26.18a.59.59,0,0,0,.32.09,4,4,0,0,0,1.62-.77c1-.65,3.05-2,6.68-4.74l.52-.39-.51-.4C453.59,126.88,453.23,126.59,444.6,131.94Z"/><path class="cls-1" d="M505,58a26,26,0,0,0-.11-2.92A38.18,38.18,0,0,0,501,40.88a45.94,45.94,0,0,0-6.37-9.61l.1-.11a66.84,66.84,0,0,0-9.23-8.1l-.23-.34-.11-.12a73.49,73.49,0,0,0-11-7.1,109.51,109.51,0,0,0-10.3-4.73l-.1,0h-.11a2.61,2.61,0,0,0-.83.15,91.43,91.43,0,0,0-14-4l-1.88-1.31-.15-.07A186.16,186.16,0,0,0,421.38,0l-.12,0-.11,0c-.93.28-1.42.72-1.46,1.32-.1,1.33,2.07,2.86,8,5.65,5.48,2.53,12.24,5.51,14.72,6.54l1.81.52-.76-1c11.94,2.53,21.94,6,30.56,10.63,1.52,1.34,2.83,2.59,3.78,3.5l.95.9,1.46,1.08-.33-1.07a52.17,52.17,0,0,1,5,3.63c.61.48,1.18,1,1.78,1.54l.71.64.63.64c.58.57,1.17,1.16,1.71,1.79A34.06,34.06,0,0,1,496.63,48a32.37,32.37,0,0,1,1.43,13.8,38.62,38.62,0,0,1-1.41,7.06,49.47,49.47,0,0,1-2.55,6.85,74.83,74.83,0,0,1-7.49,12.79,119.79,119.79,0,0,1-9.38,11.45,222,222,0,0,1-20.67,19.34c-1,.66-1.9,1.32-2.76,2a31,31,0,0,1-4.46,2.91l-2.88,1.48,1.7-.29-1.56,1.25c-1.73,1.32-4.11,3.08-6.38,4.71-4.54,3.23-4.49,3.31-4.17,3.8.1.16.17.27.37.27a4.12,4.12,0,0,0,1.46-.56l.16.29c1.57-.82,3.1-1.72,4.7-2.73h0c1.75-1,3.51-2.13,5.21-3.18l.72-.45-.07-.13,2.33-1.36c4-2.31,7.71-4.49,11.4-6.89a85.28,85.28,0,0,0,13.93-11.16,134,134,0,0,0,11.39-12.27,60.48,60.48,0,0,0,9.86-13.32,59.89,59.89,0,0,0,5.65-13.21,45.14,45.14,0,0,0,1.52-7.52c.14-1,.2-2,.25-3l.05-.93C505,58.62,505,58.3,505,58Z"/><path class="cls-1" d="M244.21,206.91l-.16-.67a63.83,63.83,0,0,1-8.39,1.34l-1.31,0,.21.58-1.95.3.18-.08h0c.25-.12.4-.23.44-.33l.09-.29-.21-.22c-.22-.23-.47-.16-.84-.05-1,.19-2.08.4-3.09.6s-2,.4-2.9.57c-.22-.18-.57-.08-.83,0l-3.21.59c-.33,0-.63,0-.92,0v.13a51.27,51.27,0,0,1-7.83,1.07l0,.9c-.26.07-.59.14-1,.22l-2.12.12,0-.26a23.77,23.77,0,0,0-3.32.44l-2.48.12-.19.6.1.14-.62.12c-1.93.1-3.85.16-5.77.23l-2.87.11-.2.61.16.22c.12.15.25.32,1.86.32s4.54-.16,10.24-.68c1.88-.17,3.82-.37,5.68-.55,3.64-.36,6.85-.68,8.71-.78.15.22.45.29.89.29l.75,0,.2-.06c.36-.18.44-.41.44-.58,1.25-.29,3-.64,4.88-1a1,1,0,0,0,.79.24c.22,0,.47,0,.74,0l.2-.06a.65.65,0,0,0,.4-.46l.32,0,.09.54,1.63-.23s0,.07,0,.11c.06.25.09.39.55.39a43.94,43.94,0,0,0,4.81-.76l.12,0c.28-.13.79-.36.78-.79.05.12.16.18.45.18a38.55,38.55,0,0,0,4.43-.73l.11,0c.29-.13.88-.4.72-.92a.46.46,0,0,0-.15-.27c.81-.26.8-.42.76-.72C245.48,206.91,245.17,206.87,244.21,206.91Zm-16,2.81a.81.81,0,0,0,.22.07l-.16,0a.71.71,0,0,0-.21-.08Z"/><path class="cls-1" d="M191.32,216.16c-2.48.14-5.59.32-7.47.33l0-.39a44.74,44.74,0,0,0-8.54,1c-.91.18-1.78.35-2.78.5v-.32q-1.2,0-2.22.06l-1.79-.37,1.9-.2,0-1-1.7-.05c-1.14,0-2.27-.06-3.4-.11l-.7,0,.38,1.26-.42.05v-1l-.35,0c-.06-.51-.2-.57-4.63-.4v.16c-.38,0-1,0-2.16.08l-1.72.09,2.46-1.35-4.3,1.22a24.49,24.49,0,0,1-7.37.59c-.2-.18-.72-.17-2.14-.13l-2.13-.17,2.41-1.16L139.82,216c-1.68.43-4.88.8-10.61.16l-2.38-.27,1.94,1.12c-2,0-3.92-.05-5.83-.11l-4.12-.32,0,.15c-3-.16-5.18-.34-6.78-.57l-.05.29-2.78-.15-.49-.07c-1.53-.24-2.73-.43-6.62-.87l0,.21-.38-.06,0,.18c-2.84-.28-5.42-.64-7.36-1l-.09.4L92.82,215c-1.29-.22-2.14-.4-3-.59s-2.05-.45-3.87-.76a16.12,16.12,0,0,0-3.63-1,38.19,38.19,0,0,0-6.21-.12c-2.22-.35-4.45-.75-6.53-1.13l-.15.74c-1.11-.16-2.44-.37-4-.65l-.5-.21c1.11.11,2.59.32,3.32.42l.18-1-2-.49a2.77,2.77,0,0,0-1.19-.68.52.52,0,0,0,.07-.23c.07-.52-.45-.8-1.63-1.22l-.12-.05-2.11.35c-2.89-.46-4.23-.6-5-.66-2.07-.7-4.15-1.5-5.91-2.18l-.22.48c-1-.37-1.9-.75-2.85-1.16l0-.13c-1.92-.72-3.1-1.23-3.83-1.57a.67.67,0,0,0,.63-.47c.14-.53-.36-.9-1.53-1.53l-.12-.06h-.13c-.89,0-1.76,0-2.64,0h-.77l-1.26-.58-.1,0a1.17,1.17,0,0,0-.8,0h0c-.94-.52-1.91-1.05-2.84-1.62-.34-.38-.61-.73-.93-1.15l-.47-.61-2.38-1.29-1.56-.87.24-.28A23.52,23.52,0,0,0,26.77,193L25,191.68l-.47.61-.36-.29-.24-.44.33-.44a48.85,48.85,0,0,1-8.09-7.65c-.51-.66-1-1.29-1.35-1.83a16.28,16.28,0,0,1-.87-1.46l-.17-.34.71.19-.74-1.11A31.7,31.7,0,0,1,9.36,169a30.48,30.48,0,0,1-.74-9.6c.49-5.94,2.39-11.81,6-18.46l.6-2.32a75.87,75.87,0,0,1,7.11-10.11,3.62,3.62,0,0,1,1.16-.64,5.27,5.27,0,0,0,1-.49,13.2,13.2,0,0,0,2.09-1.76l.27.25c.74-.67,1.53-1.32,2.3-2,.35-.29.7-.57,1.05-.87l.67-1c.72-1.17,1.46-2.38,2.18-3.46a33.85,33.85,0,0,1,4.07-3.7h0l-.28.27.7.72h0a32.36,32.36,0,0,1,5-4.14c.41-.26.77-.48,1.15-.7.59-.35,1.27-.75,2.21-1.41l.2-.14,0-.24c0-.56,1.74-1.94,2.65-2.67,1.16-.94,1.72-1.41,1.84-1.84l.69-.44,1.44-.9.84-.32a33.71,33.71,0,0,0,6.56-4.12c1.73-1.25,3.69-2.68,5.87-4,1.63-1.16,3.24-2.27,4.84-3.36l1-.67c.71-.3,1.45-.61,2.56-1.18l.2-.11.06-.22c0-.06.12-.39.91-1l2.2-1.45a22.67,22.67,0,0,0,2-1.28l2-1.27,1.06-.49,1-.25c2.22-.56,4.84-2,7.88-3.76,2-1.11,4.22-2.38,6.65-3.55,20.83-11.47,42.4-22.18,64-31.81,2.61-.79,5.22-1.57,7.9-2.34,5.91-2.48,14.15-5.61,22.09-8.6,9.49-3.62,11.29-4.47,11.51-5.2,5.1-1.37,8.63-2.28,11.48-3l3.3-.85,2.2-.57c2.92-.74,5.94-1.52,10.73-2.69,3.13-1.25,6.86-2.44,10.46-3.58,5-1.58,9.64-3.07,12.69-4.67l1.74-.91c.59,0,1.14,0,1.71-.05.74,0,1.51,0,2.4-.07l3.12-1.4c2.44-.4,3.95-.58,4.88-.65a52,52,0,0,1-5.09,1.4l.2,1c3.94-.69,6.15-1.26,8.11-1.76a57.18,57.18,0,0,1,10.42-1.82l.67-.07-.3-.73,4.71-.46V7.2c.11-.06.36-.16.53-.23.78-.3,1.29-.51,1.19-1s-.78-.53-1.36-.53l0,.57-.16.07h0a.43.43,0,0,1,.19-.4,56.13,56.13,0,0,1-5.75,1L279.89,7c-4.47.69-5.53.92-5.76,1.24A178.79,178.79,0,0,0,253,11.39c-1.09.17-2.34.41-3.82.76l.2.93a12.07,12.07,0,0,1-2.79.23,14.28,14.28,0,0,0-1.92.07l0-.17a30.5,30.5,0,0,0-4.11.82l-8,1.69.15,1,.8-.07c-.62.24-2.73.74-4.45,1.15l-1.65.32a139.62,139.62,0,0,0-17.65,4.09l-.43.25c-2.11.52-4.33,1.11-6.8,1.79-1.16.26-2.29.57-3.45.94l.08.27c-.72.08-1.53.23-2.76.45-1.47.27-3.48.63-6.65,1.12l-.11,0c-.82.34-1.4.58-1.24,1.12a.83.83,0,0,0,0,.12l-4.36,1.27.18.78c-1.46.41-2.44.64-3.1.78l-.37-.87a93.06,93.06,0,0,1-11.71,3.5l-.2,0A43.79,43.79,0,0,0,159.94,37l.16.47c-1.21.22-3.73,1-9.57,3.33l.27.7-5.13,1.28-.11,0-.12.06-.12-.39-2,.55a2.41,2.41,0,0,1-.42,0l-.19-.27-.37.13c-6.31,2.32-8.63,3.59-10.31,4.6l-.87.53a32.8,32.8,0,0,1-5.5,2.78c-.7.25-1.4.54-2.2.9l-.32.13.1-1.74-1.42,2.38c-.74.36-1.65.82-2.8,1.43l0,.11c-5.56,2.29-10.22,4.47-14.42,6.48l-.34.13a2.47,2.47,0,0,0-.37.09l-.22-.25-.34.16a50.81,50.81,0,0,0-8.68,4.7c-2.15,1.05-4.33,2.09-6.62,3.17l-1.55,1.6-.07-1.49L85.34,71c-2.66.67-7.78,3.39-13.18,6.27l-1.07.57c-4.44,2.84-8.35,5.46-12,8h0l-.5.31L57.38,87l-.27-.34c-2.83,2.15-3,2.38-3.49,2.9a16,16,0,0,1-1.32,1.33c-2.2,1.66-4.42,3.43-6.57,5.23-1.4,1-2.86,2-4.33,3.07-1.61,1.34-3.21,2.76-4.76,4.13l0,0a64.06,64.06,0,0,1-5.93,4l-.53.33a32.52,32.52,0,0,0-6.5,5.22A95.82,95.82,0,0,0,8.84,131.48a60.38,60.38,0,0,0-7.08,17.19,41.06,41.06,0,0,0-.73,21,36.92,36.92,0,0,0,3,8.25,39.37,39.37,0,0,0,4.31,6.82c.57.78,1.2,1.5,1.81,2.2l.74.84.82.84a27.47,27.47,0,0,0,2,1.93A60.23,60.23,0,0,0,20,195.66a87,87,0,0,0,7.6,4.79c2.87,1.59,5.89,3.09,9.29,4.59a42.37,42.37,0,0,1,4.3,1.71c.71.32,1.45.64,2.24,1A47.14,47.14,0,0,0,48,209.41l.29-1h0l-.37-.16-.14-.05c.4,0,.59,0,.72-.26l1.42.54c1.15.44,2.13.81,2.8,1.09l.14.05.14,0a16.88,16.88,0,0,1,4.31.46,79.63,79.63,0,0,0,8.07,2.45c1.56.4,3.13.78,4.53,1.12,1.58.38,2.94.71,3.78,1l.17.08.17-.09h0l5,1.08-1.42-1c2.15.4,3.67.72,4.42.94l.29-.77a14.36,14.36,0,0,0,3.52-.07,11.4,11.4,0,0,1,3.49,1.15l.15.07-3.16-.39-.14,1c3.82.55,5.87.75,6.93.82l1.2.13v0c.49.07,1,.14,1.67.21l2.33.28-1.33-.8c1.48.18,3.07.38,3.86.56l.06-.18,3.29.39a.54.54,0,0,0,0,.24.88.88,0,0,0,0,.24c-.8-.1-1.91-.21-3.52-.36l-.12,1c.85.12,1.43.26,2.09.41a46,46,0,0,0,8.28,1.13l.09-1c-.82-.08-1.48-.16-2-.23,2.72,0,5.51,0,8.48,0l0-.38.5.05L118,220a17.92,17.92,0,0,1,2,.28,42.69,42.69,0,0,0,7.59.68l0-.39c2.74.13,5.34.23,7.88.31h.06l4.37-1.07v.46c3.2.06,6.5.09,10.08.09H150l.91-.25a4.92,4.92,0,0,0,2.19.22l.07-.84.13,0,2.4-.08v.49l2.6.16c5.12.31,7.69.47,14.93.55h.18l.14-.12c.47-.39,3.05-.7,5.32-1,.67-.08,1.36-.16,2-.25l3.9,0,.14-.12c.43-.37,3.19-.76,5.41-1.06s4.6-.64,6.47-1.11l4.51-1.12-4.65.14C195.26,215.93,193.35,216,191.32,216.16Zm-40.41,1.5-2.13.18-1.78-.05a.72.72,0,0,0-.13-.19C148.08,217.67,149.5,217.67,150.91,217.66Zm6.93-.61h.06a5.62,5.62,0,0,0,2.1-.52l.27,0a.62.62,0,0,0,0,.13c0,.32.05.45.83.45.41,0,1,0,2-.11-1.7.19-3.43.38-5.28.53ZM142.14,216l.31.2-.75,0ZM31.32,109Zm174.94-83.6c-1.13.32-2.14.6-3,.84.33-.18.64-.36.93-.55l1.49-.95c.56-.07,1.1-.11,1.64-.16l1.37-.13ZM163,37.48c-1.05.29-1.28.25-1.33.22a.79.79,0,0,0-.13-.13l1.9-.44A4.83,4.83,0,0,0,163,37.48Zm71.9-21,1.41-.12-1.3.27A.83.83,0,0,0,234.86,16.5Zm52.33-9.31,0-.4.12,0v0A.45.45,0,0,1,287.19,7.19Zm-53.6,9.43h.11l0,.23-.2.09,0,0A.5.5,0,0,1,233.59,16.62ZM136,219.68l.51-.19h.65v.14l2.05.08-3.16,0Z"/><path class="cls-1" d="M425.83,142.93l-.17-.36c.31-.3.89-.76,1.21-1l.66-.55-.67-.75a39.75,39.75,0,0,1-4.36,3.05l-.08-.15c-1.95.89-3.81,1.73-5.63,2.52l-2,.86.24.55-.61.35-1.77,1c-4.11,2.29-4.19,2.33-3.95,2.88a.49.49,0,0,0,.48.31l.17,0a75.66,75.66,0,0,0-8.28,3.4l-.23-.54c-1.92.75-3.84,1.48-5.77,2.21l-.53.2h0l.16.42-1.36.69-1.95,1c-2.67,1.32-3.41,1.68-3.53,2-.92.39-1.88.78-2.89,1.19l.18.48c-1.24.43-2.47.91-3.77,1.44l-.07-.12-1.06.59-2.59,1.06c-2.27.94-4.95,2.06-8.24,3.29-.2-.44-.46-.35-3.93.93l-.22.09-.1-.26c-8.38,3.07-8.44,3.21-8.61,3.61a.66.66,0,0,0-.05.29,8.24,8.24,0,0,1-1.2.65c-1,.45-2.31,1-4,1.69a.38.38,0,0,0-.43-.2l-.09-.21h0l-2.6,1-.65.21-.07,0-.09-.24c-7.78,2.57-7.83,2.7-8,3.08a1.21,1.21,0,0,0-.05.14,10.93,10.93,0,0,0-1.48.82c-.42.18-1,.41-1.58.64s-1.33.34-2.09.58l-.12-.33c-1.28.43-3.37,1.2-4.84,1.74l.56-.45-2.64.87c-5.05,1.66-7.57,2.65-9.87,3.58l-.95.29-.22-.55c-3.74,1.13-4.64,1.45-4.91,1.69-2.82.86-4.76,1.53-6.25,2.06-.86.21-1.85.48-2.9.79l-.11-.33c-4.69,1.29-4.78,1.39-4.75,1.87l-.32.12,0,.06c-.49.16-1.16.37-2,.63-.41-.08-1.43.09-4.28.8-2.56.63-4.95,1.32-6.39,1.85l.17.52c-.28,0-.59.1-1,.18-2.35.65-2.8.89-2.67,1.46.05.23.1.43.76.47l-1.27.3-.14-.47c-3.46.86-5.18,1.18-5.42,1s-.74-.39-2.89,0a12.72,12.72,0,0,0-2,.64.63.63,0,0,0-.12-.18c-.33-.35-.47-.5-6.78,1.35l.21,1a15.17,15.17,0,0,1,2-.17c-.74.14-1.55.32-2.51.54l-.05-.36-1.3.09h-.05a15.47,15.47,0,0,1-1.85.25.6.6,0,0,0-.15-.36c-.31-.35-.44-.49-6.27,1.13l.19,1a7.36,7.36,0,0,1,2.42,0,4.9,4.9,0,0,0,.74.07,11,11,0,0,0,1.66-.18l.35.94.34-.13c1.72-.56,6.11-1.53,10.06-2.29l.11.28.35-.13c.48-.16,1.2-.37,2.19-.64a15.89,15.89,0,0,1,3.36-.43.42.42,0,0,1-.28-.31.41.41,0,0,1,0-.19h.22l.45.61.09-.07.79-.62a87.6,87.6,0,0,0,10.79-2.14l-.08-.36.37.48.08-.07.24-.2.42-.09c1.64-.39,3.4-.8,4.64-1l-2.85,1.89,4.51-1.8c1.17-.47,1.75-.72,1.88-1.06,1.47-.36,3-.75,4.45-1.13a68.11,68.11,0,0,1,7.06-1.61h0l.18.34c1.63-.7,2.18-1,2-1.53a.63.63,0,0,0-.16-.29l.88-.3c4.77-1.64,4.75-1.7,4.6-2.25-.06-.19-.11-.31-.28-.36l.6-.2c.51.73,2.13.62,9.2-1.73a6.12,6.12,0,0,1,.67-.11l.14.3c3.53-1.31,4.59-1.74,4.86-2.07,1-.33,2-.63,2.9-.89.48-.1,1.08-.25,1.81-.46l.51-.11.09.28,5-1.18.15-.06c.44-.26,1-.62.83-1.15l1.93-.7,3.7-1.33c2.45-.65,2.74-.72,2.86-1,1-.3,1.77-.53,2.42-.67l.11.31c1.81-.47,3.61-1,5.42-1.45l.13-.06c.5-.32,1.12-.72.87-1.25-.12-.24-.26-.39-.81-.34l.91-.38,4.42-1.92.21.6c4.35-1.31,4.35-1.31,4.46-1.64l0-.09a31.64,31.64,0,0,1,4.33-2l-.31-.94a20.8,20.8,0,0,0-3.39,1.24.22.22,0,0,0,0-.08.52.52,0,0,0,.1-.18l1.27-.51h0l4.12-1.51.53-.27c.41-.13.71-.2,1-.27a33.15,33.15,0,0,0,5.57-2.05l0-.25.15.21,3.47-1.28-.78.07,2.23-1a16,16,0,0,0,1.65-1c.65-.29,1.3-.59,1.85-.87l4.13-2.09-1,.26c3-1,5.5-2,8.86-3.35l1.58-.65-.69-.12c.76-.42,1.95-1,3-1.48,1.71-.82,3.66-1.76,5.11-2.59l3.88-2.22-4.27,1.31-.25.08c.84-.6,3.05-1.74,5-2.76l.34-.18a26,26,0,0,0,3.57-2l1.15-.6h0l.81-.4C422.59,144.6,424.22,143.78,425.83,142.93ZM307.59,193.12c-.9.19-2.26.52-4.31,1,1.15-.32,2.08-.63,2.87-.9l1.08-.25.88-.2Zm-17.72,3.25-2.07.52-.51.13c-.64.08-.73,0-.81,0a1.19,1.19,0,0,0-.32-.15c2.35-.68,3.81-1.06,4.71-1.26A3,3,0,0,0,289.87,196.37Zm7.9-1.37,0,.09-.69.15Zm2.38-.06,1-.23-1,.26Zm-13.68,4.57a.42.42,0,0,1-.26-.31h0l.28-.06Zm20.67-5.27h.06l.13.24A.41.41,0,0,1,307.14,194.24Zm17.72-6.47,0-.11.14.29A.46.46,0,0,1,324.86,187.77Z"/></g></g></svg>